# xmcd
#
# Track frame offsets: 
#        150
#        7672
#        34211
#        47776
#        63861
#        80646
#        87905
#        101331
#        118216
#        139156
#        180941
#
# Disc length: 2533 seconds
#
# Revision: 0
# Processed by: cddbd v1.5.2PL0 Copyright (c) Steve Scherf et al.
# Submitted via: ExactAudioCopy v1.0b4
#
DISCID=8309e30b
DTITLE=Sonic Gypsy - Born A Rolling Stone
DYEAR=2015
DGENRE=Blues Rock
TTITLE0=The Unprecedented Return Of Mr Majestyk
TTITLE1=I Was Born A Rolling Stone
TTITLE2=Lucifer's Lament
TTITLE3=Shotgun Tel
TTITLE4=Meet Me By The River
TTITLE5=Backyard Stomp No 2 (Slight Return)
TTITLE6=Aplocalypse Ranch Revisited
TTITLE7=Honeykill
TTITLE8=Mouthful Of Cactus (You Can't Kill A Good Thing)
TTITLE9=Backyard Stomp No 2 (Let The Good Times Roll)
TTITLE10=Disclaimer Boogie
EXTD=
EXTT0=
EXTT1=
EXTT2=
EXTT3=
EXTT4=
EXTT5=
EXTT6=
EXTT7=
EXTT8=
EXTT9=
EXTT10=
PLAYORDER=
